<svg xmlns="http://www.w3.org/2000/svg" viewBox="0 0 127.09 115.1"><defs><style>.cls-1{fill:#fff;}</style></defs><g id="Layer_2" data-name="Layer 2"><g id="Layer_1-2" data-name="Layer 1"><path d="M109.64,115c-5.32,0-10.64,0-16,0a3.28,3.28,0,0,1-2.54-1.34q-6-6.59-12.11-13.15-14.81-16-29.61-31.94a39.51,39.51,0,0,1-2.61-3.28c-2.55-3.41-2.69-7.35-1.94-11.24a12.4,12.4,0,0,1,2.7-5.27c3.58-4.3,7.34-8.46,11.13-12.57Q72.91,20.85,87.21,5.56C88.68,4,90.14,2.38,91.71.9a3.15,3.15,0,0,1,2-.78c10.32,0,20.64,0,31,.05,1.68,0,2.23.12,2.4.42s-.23.58-.49.86c-2.07,2.23-4.2,4.4-6.27,6.62Q106.07,23.36,91.86,38.65c-5.64,6.05-11.33,12.07-17,18.09a1,1,0,0,0,0,1.54Q91.08,75.62,107.29,93c6,6.43,12,12.9,18,19.34.44.47,1,.84,1.38,1.33.22.27.6.53.4,1-.18.34-.64.31-1,.32C120.6,115,115.12,115,109.64,115Z"/><path class="cls-1" d="M93.9,13.54a13.85,13.85,0,0,0-2.25-6.2C89,3.78,85.71.92,81,.41A45.44,45.44,0,0,0,76.35.07H67.87L67.76,0l0,.07H47.87C41.24.06,34.61,0,28,0a3.68,3.68,0,0,0-3,1.05c-4,4.38-8,8.7-12.06,13S4.59,23,.46,27.52a3.59,3.59,0,0,0-.46,1A3.76,3.76,0,0,0,1.14,29c.7,0,1.42-.11,2.13-.11,9.79,0,19.58,0,29.38,0,17.62-.05,15.25-.12,32.87-.2.84,0,1.2.32,1.26,1.16.22,3.29.31,14.52.34,27.75S67,82,66.78,85.3c-.06.84-.42,1.17-1.26,1.17-17.62-.08-15.25-.16-32.87-.21-9.8,0-19.59,0-29.38,0-.71,0-1.43-.15-2.13-.11A3.76,3.76,0,0,0,0,86.57a3.65,3.65,0,0,0,.46,1Q6.66,94.31,12.89,101c4,4.34,8.07,8.67,12.06,13a3.65,3.65,0,0,0,3,1c6.63,0,13.26-.06,19.89-.06H67.73l0,.07.11-.07c2.82,0,5.65,0,8.48,0a45.44,45.44,0,0,0,4.65-.34c4.71-.51,8-3.37,10.65-6.93a13.85,13.85,0,0,0,2.25-6.2c.46-3.48.43-25.25.33-44C94.33,38.79,94.36,17,93.9,13.54Z"/></g></g></svg>