<svg xmlns="http://www.w3.org/2000/svg" viewBox="0 0 82.62 114.92"><defs><style>.cls-1{fill:#fff;}</style></defs><g id="Layer_2" data-name="Layer 2"><g id="Layer_1-2" data-name="Layer 1"><path class="cls-1" d="M47.18,7.23a13.86,13.86,0,0,1,2.25,6.19c.28,2.16.38,11.36.39,22.5q13-14,26-28C77.9,5.74,80,3.57,82.1,1.34c.26-.28.63-.58.49-.87s-.72-.41-2.4-.41C69.87,0,59.55,0,49.23,0a3.19,3.19,0,0,0-2,.79c-1.05,1-2.05,2-3,3.1A22.7,22.7,0,0,1,47.18,7.23Z"/><path class="cls-1" d="M22.31,85.19c.22-3.29.31-14.52.34-27.75S22.53,33,22.31,29.69c0-.76-.37-1.09-1-1.14q-3.51,3.78-7,7.57C10.44,40.24,6.68,44.39,3.1,48.7A12.34,12.34,0,0,0,.4,54c-.75,3.89-.61,7.83,1.94,11.24A39.51,39.51,0,0,0,5,68.49L21.47,86.31C22,86.2,22.26,85.87,22.31,85.19Z"/><path class="cls-1" d="M82.16,113.55c-.41-.49-.94-.86-1.38-1.33-6-6.44-12-12.91-18-19.34L49.82,79c0,11.14-.11,20.32-.39,22.48a13.85,13.85,0,0,1-2.25,6.2,23.18,23.18,0,0,1-2.93,3.3l2.42,2.62a3.29,3.29,0,0,0,2.54,1.35c5.32,0,10.64,0,16,0q8.22,0,16.43,0c.32,0,.78,0,1-.31C82.76,114.08,82.38,113.82,82.16,113.55Z"/></g></g></svg>